<?xml version="1.0" encoding="utf-8"?>
<!-- Generator: Adobe Illustrator 16.0.0, SVG Export Plug-In . SVG Version: 6.00 Build 0)  -->
<!DOCTYPE svg PUBLIC "-//W3C//DTD SVG 1.1//EN" "http://www.w3.org/Graphics/SVG/1.1/DTD/svg11.dtd">
<svg version="1.1" id="Layer_1" xmlns="http://www.w3.org/2000/svg" xmlns:xlink="http://www.w3.org/1999/xlink" x="0px" y="0px"
	 width="170.08px" height="297.64px" viewBox="0 0 170.08 297.64" enable-background="new 0 0 170.08 297.64" xml:space="preserve">
<g>
	<ellipse fill="#1BACD6" cx="85.252" cy="273.763" rx="43.362" ry="17.877"/>
	<rect x="45.943" y="159.915" fill="#1BACD6" width="78.923" height="111.301"/>
	<path fill="#1BACD6" stroke="#FFFFFF" stroke-width="3" stroke-miterlimit="10" d="M161.079,61.509
		c3.33,8.857,5.15,18.452,5.15,28.471c0,44.705-36.24,80.945-80.945,80.945c-33.081,0-61.527-19.845-74.083-48.278"/>
	<path fill="#1BACD6" stroke="#FFFFFF" stroke-width="3" stroke-miterlimit="10" d="M161.079,61.509
		C150.142,30.64,119.968,9.036,85.284,9.036c-44.706,0-80.945,36.24-80.945,80.944c0,11.624,2.45,22.675,6.862,32.667
		C11.201,122.646,180.134,115.279,161.079,61.509z"/>
	<ellipse fill="#FFFFFF" cx="84.876" cy="16.779" rx="32.86" ry="7.42"/>
	<ellipse fill="#1BACD6" cx="85.028" cy="14.256" rx="31.365" ry="7.083"/>
	<ellipse fill="#1BACD6" cx="85.406" cy="269.985" rx="39.46" ry="16.527"/>
	<g>
		<path fill="#FFFFFF" d="M108.224,255.466c-14.526,5.223-31.72,5.223-46.247,0c0-24.734,0-49.469,0-74.203
			c15.141,3.893,31.106,3.893,46.247,0C108.224,205.997,108.224,230.731,108.224,255.466z"/>
	</g>
	<g>
		<circle fill="#1BACD6" cx="85.562" cy="207.036" r="9.932"/>
		<ellipse fill="#1BACD6" cx="85.562" cy="214.011" rx="12.891" ry="4.225"/>
	</g>
</g>
</svg>
