<?xml version="1.0" encoding="UTF-8" standalone="no"?>
<!-- Created with Inkscape (http://www.inkscape.org/) -->

<svg
   xmlns:dc="http://purl.org/dc/elements/1.1/"
   xmlns:cc="http://creativecommons.org/ns#"
   xmlns:rdf="http://www.w3.org/1999/02/22-rdf-syntax-ns#"
   xmlns:svg="http://www.w3.org/2000/svg"
   xmlns="http://www.w3.org/2000/svg"
   xmlns:sodipodi="http://sodipodi.sourceforge.net/DTD/sodipodi-0.dtd"
   xmlns:inkscape="http://www.inkscape.org/namespaces/inkscape"
   width="210mm"
   height="297mm"
   viewBox="0 0 744.09448819 1052.3622047"
   id="svg4462"
   version="1.1"
   inkscape:version="0.91 r13725"
   sodipodi:docname="tall_logo.svg">
  <defs
     id="defs4464">
    <clipPath
       clipPathUnits="userSpaceOnUse"
       id="clipPath4383">
      <path
         d="m 0,566.93 566.93,0 L 566.93,0 0,0 0,566.93 Z"
         id="path4385"
         inkscape:connector-curvature="0" />
    </clipPath>
  </defs>
  <sodipodi:namedview
     id="base"
     pagecolor="#ffffff"
     bordercolor="#666666"
     borderopacity="1.0"
     inkscape:pageopacity="0.0"
     inkscape:pageshadow="2"
     inkscape:zoom="0.35"
     inkscape:cx="-296.42857"
     inkscape:cy="520"
     inkscape:document-units="px"
     inkscape:current-layer="layer1"
     showgrid="false"
     inkscape:window-width="1440"
     inkscape:window-height="844"
     inkscape:window-x="0"
     inkscape:window-y="27"
     inkscape:window-maximized="1" />
  <metadata
     id="metadata4467">
    <rdf:RDF>
      <cc:Work
         rdf:about="">
        <dc:format>image/svg+xml</dc:format>
        <dc:type
           rdf:resource="http://purl.org/dc/dcmitype/StillImage" />
        <dc:title></dc:title>
      </cc:Work>
    </rdf:RDF>
  </metadata>
  <g
     inkscape:label="Layer 1"
     inkscape:groupmode="layer"
     id="layer1">
    <g
       transform="matrix(3.7942552,0,0,-3.7942552,-1020.9171,1179.2116)"
       id="g4379">
      <g
         id="g4381"
         clip-path="url(#clipPath4383)">
        <g
           id="g4387"
           transform="translate(406.5576,53.6182)">
          <path
             d="m 0,0 c 0,-9.383 -18.447,-16.988 -41.207,-16.988 -22.758,0 -41.209,7.605 -41.209,16.988 0,9.382 18.451,16.987 41.209,16.987 C -18.447,16.987 0,9.382 0,0"
             style="fill:#6db6c6;fill-opacity:1;fill-rule:nonzero;stroke:none"
             id="path4389"
             inkscape:connector-curvature="0" />
        </g>
        <path
           d="m 402.995,55.039 -75.002,0 0,105.77 75.002,0 0,-105.77 z"
           style="fill:#19acd6;fill-opacity:1;fill-rule:nonzero;stroke:none"
           id="path4391"
           inkscape:connector-curvature="0" />
        <g
           id="g4393"
           transform="translate(437.4092,254.3262)">
          <path
             d="m 0,0 c 3.164,-8.417 4.895,-17.535 4.895,-27.057 0,-42.483 -34.44,-76.922 -76.924,-76.922 -31.438,0 -58.471,18.858 -70.403,45.879"
             style="fill:#bde6f4;fill-opacity:1;fill-rule:nonzero;stroke:none"
             id="path4395"
             inkscape:connector-curvature="0" />
        </g>
        <g
           id="g4397"
           transform="translate(437.4092,254.3262)">
          <path
             d="m 0,0 c -10.395,29.336 -39.068,49.866 -72.029,49.866 -42.485,0 -76.924,-34.439 -76.924,-76.923 0,-11.046 2.328,-21.548 6.521,-31.043 0,0 160.539,7.001 142.432,58.1"
             style="fill:#a4ddf2;fill-opacity:1;fill-rule:nonzero;stroke:none"
             id="path4399"
             inkscape:connector-curvature="0" />
        </g>
        <g
           id="g4401"
           transform="translate(396.2178,296.834)">
          <path
             d="m 0,0 c 0,-3.895 -13.979,-7.052 -31.227,-7.052 -17.246,0 -31.226,3.157 -31.226,7.052 0,3.894 13.98,7.051 31.226,7.051 C -13.979,7.051 0,3.894 0,0"
             style="fill:#6db6c6;fill-opacity:1;fill-rule:nonzero;stroke:none"
             id="path4403"
             inkscape:connector-curvature="0" />
        </g>
        <g
           id="g4405"
           transform="translate(394.9424,299.2314)">
          <path
             d="m 0,0 c 0,-3.717 -13.344,-6.73 -29.807,-6.73 -16.463,0 -29.806,3.013 -29.806,6.73 0,3.717 13.343,6.73 29.806,6.73 C -13.344,6.73 0,3.717 0,0"
             style="fill:#19acd6;fill-opacity:1;fill-rule:nonzero;stroke:none"
             id="path4407"
             inkscape:connector-curvature="0" />
        </g>
        <g
           id="g4409"
           transform="translate(402.9951,56.207)">
          <path
             d="M 0,0 C 0,-8.675 -16.789,-15.706 -37.5,-15.706 -58.211,-15.706 -75,-8.675 -75,0 -75,8.674 -58.211,15.705 -37.5,15.705 -16.789,15.705 0,8.674 0,0"
             style="fill:#19acd6;fill-opacity:1;fill-rule:nonzero;stroke:none"
             id="path4411"
             inkscape:connector-curvature="0" />
        </g>
        <g
           id="g4413"
           transform="translate(389.8018,140.4238)">
          <path
             d="m 0,0 0,-67 c -16.023,-8.974 -33.975,-8.974 -50,0"
             style="fill:#cececf;fill-opacity:1;fill-rule:nonzero;stroke:none"
             id="path4415"
             inkscape:connector-curvature="0" />
        </g>
        <g
           id="g4417"
           transform="translate(339.8018,73.4238)">
          <path
             d="m 0,0 0,67 c 16.367,-4.478 33.635,-4.478 50,0"
             style="fill:#c9c9c9;fill-opacity:1;fill-rule:nonzero;stroke:none"
             id="path4419"
             inkscape:connector-curvature="0" />
        </g>
        <g
           id="g4421"
           transform="translate(374.2412,117.4238)">
          <path
             d="m 0,0 c 0,-5.213 -4.227,-9.438 -9.439,-9.438 -5.213,0 -9.438,4.225 -9.438,9.438 0,5.213 4.225,9.438 9.438,9.438 C -4.227,9.438 0,5.213 0,0"
             style="fill:#9a9a9b;fill-opacity:1;fill-rule:nonzero;stroke:none"
             id="path4423"
             inkscape:connector-curvature="0" />
        </g>
        <g
           id="g4425"
           transform="translate(377.0518,110.7969)">
          <path
             d="m 0,0 c 0,-2.219 -5.484,-4.017 -12.25,-4.017 -6.766,0 -12.25,1.798 -12.25,4.017 0,2.218 5.484,4.017 12.25,4.017 C -5.484,4.017 0,2.218 0,0"
             style="fill:#9a9a9b;fill-opacity:1;fill-rule:nonzero;stroke:none"
             id="path4427"
             inkscape:connector-curvature="0" />
        </g>
      </g>
    </g>
  </g>
</svg>
